<svg version="1.1" id="Layer_1" xmlns="http://www.w3.org/2000/svg" xmlns:xlink="http://www.w3.org/1999/xlink" x="0px" y="0px"
	 width="100%" viewBox="0 0 761 801" enable-background="new 0 0 761 801" xml:space="preserve">
<path fill="#FFFFFF" opacity="1.000000" stroke="none" 
	d="
M428.000000,0.999999 
	C539.306885,1.000000 650.613708,1.000000 761.960327,1.000000 
	C761.960327,267.910034 761.960327,534.820129 761.960327,802.000000 
	C544.641846,802.000000 327.283569,802.000000 109.450539,801.651611 
	C109.667053,800.366943 110.331604,799.409607 111.053452,798.497620 
	C136.401321,766.470703 152.419357,730.402588 157.799393,689.817932 
	C162.316727,655.740906 159.314804,622.006287 152.438461,588.521484 
	C142.542023,540.330139 125.430321,494.506256 107.065742,448.904938 
	C158.227951,508.387085 205.435349,570.475708 235.172607,644.257202 
	C235.704086,643.519165 235.787857,642.941711 235.808655,642.362000 
	C237.474686,595.909119 240.156601,549.465393 240.580154,503.001129 
	C241.406494,412.347656 241.618744,321.699646 248.080521,231.210968 
	C249.017639,218.087997 250.103119,204.975632 251.119949,191.858353 
	C283.526947,356.531372 306.909393,522.540588 330.430176,688.504883 
	C325.761780,504.910095 345.323273,323.509308 378.893890,143.094025 
	C377.544006,143.006546 376.242218,142.848602 374.940430,142.848404 
	C312.109711,142.838638 249.278946,142.874969 186.448273,142.827377 
	C164.141846,142.810486 142.932220,147.527939 122.481125,156.397079 
	C66.706543,180.585175 28.937218,238.334335 28.972910,299.021027 
	C29.071516,466.680634 29.002647,634.340332 29.000000,802.000000 
	C19.669846,802.000000 10.339691,802.000000 1.007152,802.000000 
	C1.004768,535.094116 1.004768,268.188232 1.004768,1.000000 
	C141.024780,1.000000 281.049744,1.000000 421.576355,1.466359 
	C422.497314,18.758690 422.719360,35.592304 423.371124,52.409271 
	C425.797272,115.008934 428.204285,177.610123 430.935120,240.196930 
	C432.765198,282.139465 434.765472,324.081085 437.340851,365.983063 
	C441.213623,428.994141 445.257080,492.000305 450.003143,554.950134 
	C452.969269,594.291626 457.339233,633.527649 461.144135,672.804749 
	C461.512451,676.606750 462.291595,680.372925 462.968506,684.139893 
	C463.638458,687.867920 464.420502,691.575745 465.153381,695.292480 
	C476.367920,582.718567 525.107422,485.794922 587.548584,394.388062 
	C587.836609,395.609283 587.765991,396.708771 587.572266,397.786133 
	C578.948608,445.751160 569.529663,493.589996 561.907532,541.713440 
	C554.671936,587.396545 552.537476,633.477356 556.902466,679.704712 
	C560.449097,717.265137 569.491089,753.409302 584.224182,788.128906 
	C585.693909,791.592468 587.503540,794.911682 589.121887,798.229065 
	C651.801025,776.513611 693.883850,716.168823 693.910767,648.116882 
	C693.976624,481.464569 693.932434,314.812164 693.932556,148.159821 
	C693.932556,146.541397 693.932556,144.922958 693.932556,143.199951 
	C692.808044,143.035339 692.175171,142.850830 691.546387,142.863907 
	C668.890930,143.334641 646.237793,143.954376 623.580383,144.276962 
	C595.943420,144.670456 568.271973,145.745560 540.671936,144.827484 
	C508.276123,143.749893 483.312592,128.719116 466.410248,100.606644 
	C452.927673,78.182068 444.081848,53.841049 436.017334,29.162264 
	C432.987854,19.891518 430.652069,10.394080 428.000000,0.999999 
z"/>
<path fill="#0EBD6E" opacity="1.000000" stroke="none" 
	d="
M29.468658,802.000000 
	C29.002647,634.340332 29.071516,466.680634 28.972910,299.021027 
	C28.937218,238.334335 66.706543,180.585175 122.481125,156.397079 
	C142.932220,147.527939 164.141846,142.810486 186.448273,142.827377 
	C249.278946,142.874969 312.109711,142.838638 374.940430,142.848404 
	C376.242218,142.848602 377.544006,143.006546 378.893890,143.094025 
	C345.323273,323.509308 325.761780,504.910095 330.430176,688.504883 
	C306.909393,522.540588 283.526947,356.531372 251.119949,191.858353 
	C250.103119,204.975632 249.017639,218.087997 248.080521,231.210968 
	C241.618744,321.699646 241.406494,412.347656 240.580154,503.001129 
	C240.156601,549.465393 237.474686,595.909119 235.808655,642.362000 
	C235.787857,642.941711 235.704086,643.519165 235.172607,644.257202 
	C205.435349,570.475708 158.227951,508.387085 107.065742,448.904938 
	C125.430321,494.506256 142.542023,540.330139 152.438461,588.521484 
	C159.314804,622.006287 162.316727,655.740906 157.799393,689.817932 
	C152.419357,730.402588 136.401321,766.470703 111.053452,798.497620 
	C110.331604,799.409607 109.667053,800.366943 108.987900,801.651611 
	C82.645775,802.000000 56.291542,802.000000 29.468658,802.000000 
z"/>
<path fill="#0EBD6E" opacity="1.000000" stroke="none" 
	d="
M427.571533,0.999999 
	C430.652069,10.394080 432.987854,19.891518 436.017334,29.162264 
	C444.081848,53.841049 452.927673,78.182068 466.410248,100.606644 
	C483.312592,128.719116 508.276123,143.749893 540.671936,144.827484 
	C568.271973,145.745560 595.943420,144.670456 623.580383,144.276962 
	C646.237793,143.954376 668.890930,143.334641 691.546387,142.863907 
	C692.175171,142.850830 692.808044,143.035339 693.932556,143.199951 
	C693.932556,144.922958 693.932556,146.541397 693.932556,148.159821 
	C693.932434,314.812164 693.976624,481.464569 693.910767,648.116882 
	C693.883850,716.168823 651.801025,776.513611 589.121887,798.229065 
	C587.503540,794.911682 585.693909,791.592468 584.224182,788.128906 
	C569.491089,753.409302 560.449097,717.265137 556.902466,679.704712 
	C552.537476,633.477356 554.671936,587.396545 561.907532,541.713440 
	C569.529663,493.589996 578.948608,445.751160 587.572266,397.786133 
	C587.765991,396.708771 587.836609,395.609283 587.548584,394.388062 
	C525.107422,485.794922 476.367920,582.718567 465.153381,695.292480 
	C464.420502,691.575745 463.638458,687.867920 462.968506,684.139893 
	C462.291595,680.372925 461.512451,676.606750 461.144135,672.804749 
	C457.339233,633.527649 452.969269,594.291626 450.003143,554.950134 
	C445.257080,492.000305 441.213623,428.994141 437.340851,365.983063 
	C434.765472,324.081085 432.765198,282.139465 430.935120,240.196930 
	C428.204285,177.610123 425.797272,115.008934 423.371124,52.409271 
	C422.719360,35.592304 422.497314,18.758690 422.039001,1.466359 
	C423.714355,1.000000 425.428711,1.000000 427.571533,0.999999 
z"/>
</svg>